<mxfile host="Electron" agent="Mozilla/5.0 (Windows NT 10.0; Win64; x64) AppleWebKit/537.36 (KHTML, like Gecko) draw.io/28.0.6 Chrome/138.0.7204.100 Electron/37.2.3 Safari/537.36" version="28.0.6">
  <diagram name="Insurance System Architecture" id="6_pj3nupvDH_ZJcyVB0t">
    <mxGraphModel dx="2037" dy="1201" grid="1" gridSize="10" guides="1" tooltips="1" connect="1" arrows="1" fold="1" page="1" pageScale="1" pageWidth="850" pageHeight="1100" background="#D2E1FF" math="0" shadow="1">
      <root>
        <mxCell id="0" />
        <mxCell id="1" parent="0" />
        <mxCell id="x8o0eFIyDfpqeiVu4HXl-1" value="External Client" style="rounded=1;whiteSpace=wrap;html=1;fillColor=#dae8fc;strokeColor=#6c8ebf;" parent="1" vertex="1">
          <mxGeometry x="40" y="40" width="120" height="60" as="geometry" />
        </mxCell>
        <mxCell id="x8o0eFIyDfpqeiVu4HXl-2" value="API Gateway&#xa;(Optional)" style="rounded=1;whiteSpace=wrap;html=1;fillColor=#fff2cc;strokeColor=#d6b656;" parent="1" vertex="1">
          <mxGeometry x="240" y="40" width="120" height="60" as="geometry" />
        </mxCell>
        <mxCell id="x8o0eFIyDfpqeiVu4HXl-3" value="Proposal Service&#xa;(Port 7001)" style="rounded=1;whiteSpace=wrap;html=1;fillColor=#d5e8d4;strokeColor=#82b366;" parent="1" vertex="1">
          <mxGeometry x="40" y="160" width="320" height="240" as="geometry" />
        </mxCell>
        <mxCell id="x8o0eFIyDfpqeiVu4HXl-4" value="API Layer&#xa;(Controllers)" style="rounded=1;whiteSpace=wrap;html=1;fillColor=#e1d5e7;strokeColor=#9673a6;" parent="1" vertex="1">
          <mxGeometry x="60" y="180" width="280" height="40" as="geometry" />
        </mxCell>
        <mxCell id="x8o0eFIyDfpqeiVu4HXl-5" value="Application Layer&#xa;(Use Cases)" style="rounded=1;whiteSpace=wrap;html=1;fillColor=#ffe6cc;strokeColor=#d79b00;" parent="1" vertex="1">
          <mxGeometry x="60" y="240" width="280" height="40" as="geometry" />
        </mxCell>
        <mxCell id="x8o0eFIyDfpqeiVu4HXl-6" value="Domain Layer&#xa;(Entities, Repositories)" style="rounded=1;whiteSpace=wrap;html=1;fillColor=#f8cecc;strokeColor=#b85450;" parent="1" vertex="1">
          <mxGeometry x="60" y="300" width="280" height="40" as="geometry" />
        </mxCell>
        <mxCell id="x8o0eFIyDfpqeiVu4HXl-7" value="Infrastructure Layer&#xa;(EF, HTTP Client, Event Publisher)" style="rounded=1;whiteSpace=wrap;html=1;fillColor=#f5f5f5;strokeColor=#666666;" parent="1" vertex="1">
          <mxGeometry x="60" y="360" width="280" height="40" as="geometry" />
        </mxCell>
        <mxCell id="x8o0eFIyDfpqeiVu4HXl-8" value="Contract Service&#xa;(Port 7002)" style="rounded=1;whiteSpace=wrap;html=1;fillColor=#d5e8d4;strokeColor=#82b366;" parent="1" vertex="1">
          <mxGeometry x="440" y="160" width="320" height="240" as="geometry" />
        </mxCell>
        <mxCell id="x8o0eFIyDfpqeiVu4HXl-9" value="API Layer&#xa;(Controllers)" style="rounded=1;whiteSpace=wrap;html=1;fillColor=#e1d5e7;strokeColor=#9673a6;" parent="1" vertex="1">
          <mxGeometry x="460" y="180" width="280" height="40" as="geometry" />
        </mxCell>
        <mxCell id="x8o0eFIyDfpqeiVu4HXl-10" value="Application Layer&#xa;(Use Cases)" style="rounded=1;whiteSpace=wrap;html=1;fillColor=#ffe6cc;strokeColor=#d79b00;" parent="1" vertex="1">
          <mxGeometry x="460" y="240" width="280" height="40" as="geometry" />
        </mxCell>
        <mxCell id="x8o0eFIyDfpqeiVu4HXl-11" value="Domain Layer&#xa;(Entities, Repositories)" style="rounded=1;whiteSpace=wrap;html=1;fillColor=#f8cecc;strokeColor=#b85450;" parent="1" vertex="1">
          <mxGeometry x="460" y="300" width="280" height="40" as="geometry" />
        </mxCell>
        <mxCell id="x8o0eFIyDfpqeiVu4HXl-12" value="Infrastructure Layer&#xa;(EF, Event Consumer, HTTP Client)" style="rounded=1;whiteSpace=wrap;html=1;fillColor=#f5f5f5;strokeColor=#666666;" parent="1" vertex="1">
          <mxGeometry x="460" y="360" width="280" height="40" as="geometry" />
        </mxCell>
        <mxCell id="x8o0eFIyDfpqeiVu4HXl-13" value="Databases" style="shape=cylinder3;whiteSpace=wrap;html=1;boundedLbl=1;backgroundOutline=1;size=15;fillColor=#d5e8d4;strokeColor=#82b366;" parent="1" vertex="1">
          <mxGeometry x="20" y="530" width="190" height="80" as="geometry" />
        </mxCell>
        <mxCell id="x8o0eFIyDfpqeiVu4HXl-14" value="SQL Server&#xa;InsuranceProposals" style="text;html=1;strokeColor=none;fillColor=none;align=center;verticalAlign=middle;whiteSpace=wrap;rounded=0;" parent="1" vertex="1">
          <mxGeometry x="115" y="500" width="120" height="20" as="geometry" />
        </mxCell>
        <mxCell id="x8o0eFIyDfpqeiVu4HXl-15" value="PostgreSQL&#xa;insurance_contracts" style="text;html=1;strokeColor=none;fillColor=none;align=center;verticalAlign=middle;whiteSpace=wrap;rounded=0;" parent="1" vertex="1">
          <mxGeometry x="755" y="490" width="120" height="20" as="geometry" />
        </mxCell>
        <mxCell id="x8o0eFIyDfpqeiVu4HXl-16" value="Databases" style="shape=cylinder3;whiteSpace=wrap;html=1;boundedLbl=1;backgroundOutline=1;size=15;fillColor=#d5e8d4;strokeColor=#82b366;" parent="1" vertex="1">
          <mxGeometry x="640" y="520" width="190" height="80" as="geometry" />
        </mxCell>
        <mxCell id="x8o0eFIyDfpqeiVu4HXl-17" value="Redis Cache&#xa;(Port 6379)" style="rounded=1;whiteSpace=wrap;html=1;fillColor=#ff9999;strokeColor=#cc0000;" parent="1" vertex="1">
          <mxGeometry x="280" y="520" width="120" height="80" as="geometry" />
        </mxCell>
        <mxCell id="x8o0eFIyDfpqeiVu4HXl-18" value="RabbitMQ&#xa;(Port 5672)&#xa;Message Broker" style="rounded=1;whiteSpace=wrap;html=1;fillColor=#ffcc99;strokeColor=#cc6600;" parent="1" vertex="1">
          <mxGeometry x="370" y="650" width="120" height="80" as="geometry" />
        </mxCell>
        <mxCell id="x8o0eFIyDfpqeiVu4HXl-19" value="Event Consumers&#xa;• ProposalStatusUpdatedConsumer&#xa;• (Future: ProposalCreatedConsumer)&#xa;• (Future: ContractCreatedConsumer)" style="rounded=1;whiteSpace=wrap;html=1;fillColor=#cc99ff;strokeColor=#9933cc;" parent="1" vertex="1">
          <mxGeometry x="790" y="620" width="200" height="100" as="geometry" />
        </mxCell>
        <mxCell id="x8o0eFIyDfpqeiVu4HXl-21" value="HTTP/REST" style="edgeStyle=orthogonalEdgeStyle;rounded=0;orthogonalLoop=1;jettySize=auto;html=1;" parent="1" source="x8o0eFIyDfpqeiVu4HXl-1" target="x8o0eFIyDfpqeiVu4HXl-2" edge="1">
          <mxGeometry relative="1" as="geometry" />
        </mxCell>
        <mxCell id="x8o0eFIyDfpqeiVu4HXl-22" value="HTTP/REST" style="edgeStyle=orthogonalEdgeStyle;rounded=0;orthogonalLoop=1;jettySize=auto;html=1;" parent="1" source="x8o0eFIyDfpqeiVu4HXl-2" target="x8o0eFIyDfpqeiVu4HXl-3" edge="1">
          <mxGeometry relative="1" as="geometry" />
        </mxCell>
        <mxCell id="x8o0eFIyDfpqeiVu4HXl-23" value="HTTP/REST" style="edgeStyle=orthogonalEdgeStyle;rounded=0;orthogonalLoop=1;jettySize=auto;html=1;" parent="1" source="x8o0eFIyDfpqeiVu4HXl-2" target="x8o0eFIyDfpqeiVu4HXl-8" edge="1">
          <mxGeometry relative="1" as="geometry" />
        </mxCell>
        <mxCell id="x8o0eFIyDfpqeiVu4HXl-24" value="HTTP/REST" style="edgeStyle=orthogonalEdgeStyle;rounded=0;orthogonalLoop=1;jettySize=auto;html=1;curved=1;" parent="1" source="x8o0eFIyDfpqeiVu4HXl-3" target="x8o0eFIyDfpqeiVu4HXl-8" edge="1">
          <mxGeometry relative="1" as="geometry" />
        </mxCell>
        <mxCell id="x8o0eFIyDfpqeiVu4HXl-25" value="Entity Framework" style="edgeStyle=orthogonalEdgeStyle;rounded=0;orthogonalLoop=1;jettySize=auto;html=1;" parent="1" target="x8o0eFIyDfpqeiVu4HXl-13" edge="1">
          <mxGeometry x="-0.2778" y="-10" relative="1" as="geometry">
            <mxPoint as="offset" />
            <mxPoint x="115" y="400.0000000000002" as="sourcePoint" />
          </mxGeometry>
        </mxCell>
        <mxCell id="x8o0eFIyDfpqeiVu4HXl-26" value="Entity Framework" style="edgeStyle=orthogonalEdgeStyle;rounded=0;orthogonalLoop=1;jettySize=auto;html=1;" parent="1" target="x8o0eFIyDfpqeiVu4HXl-16" edge="1">
          <mxGeometry x="-0.2778" y="10" relative="1" as="geometry">
            <mxPoint as="offset" />
            <mxPoint x="645" y="570" as="targetPoint" />
            <Array as="points" />
            <mxPoint x="735" y="400.0000000000002" as="sourcePoint" />
          </mxGeometry>
        </mxCell>
        <mxCell id="x8o0eFIyDfpqeiVu4HXl-27" value="Cache" style="edgeStyle=orthogonalEdgeStyle;rounded=0;orthogonalLoop=1;jettySize=auto;html=1;curved=1;strokeColor=#ff0000;" parent="1" source="x8o0eFIyDfpqeiVu4HXl-3" target="x8o0eFIyDfpqeiVu4HXl-17" edge="1">
          <mxGeometry relative="1" as="geometry" />
        </mxCell>
        <mxCell id="x8o0eFIyDfpqeiVu4HXl-28" value="Cache" style="edgeStyle=orthogonalEdgeStyle;rounded=0;orthogonalLoop=1;jettySize=auto;html=1;curved=1;strokeColor=#ff0000;" parent="1" source="x8o0eFIyDfpqeiVu4HXl-8" target="x8o0eFIyDfpqeiVu4HXl-17" edge="1">
          <mxGeometry relative="1" as="geometry" />
        </mxCell>
        <mxCell id="x8o0eFIyDfpqeiVu4HXl-29" value="Publish Events" style="edgeStyle=orthogonalEdgeStyle;rounded=0;orthogonalLoop=1;jettySize=auto;html=1;curved=1;strokeColor=#ff6600;" parent="1" source="x8o0eFIyDfpqeiVu4HXl-3" target="x8o0eFIyDfpqeiVu4HXl-18" edge="1">
          <mxGeometry relative="1" as="geometry" />
        </mxCell>
        <mxCell id="x8o0eFIyDfpqeiVu4HXl-30" value="Publish Events" style="edgeStyle=orthogonalEdgeStyle;rounded=0;orthogonalLoop=1;jettySize=auto;html=1;curved=1;strokeColor=#ff6600;" parent="1" source="x8o0eFIyDfpqeiVu4HXl-20" target="x8o0eFIyDfpqeiVu4HXl-18" edge="1">
          <mxGeometry relative="1" as="geometry" />
        </mxCell>
        <mxCell id="x8o0eFIyDfpqeiVu4HXl-31" value="Consume Events" style="edgeStyle=orthogonalEdgeStyle;rounded=0;orthogonalLoop=1;jettySize=auto;html=1;curved=1;strokeColor=#ff6600;" parent="1" source="x8o0eFIyDfpqeiVu4HXl-18" target="x8o0eFIyDfpqeiVu4HXl-19" edge="1">
          <mxGeometry relative="1" as="geometry" />
        </mxCell>
        <mxCell id="x8o0eFIyDfpqeiVu4HXl-32" value="Consume" style="edgeStyle=orthogonalEdgeStyle;rounded=0;orthogonalLoop=1;jettySize=auto;html=1;curved=1;strokeColor=#9933cc;" parent="1" source="x8o0eFIyDfpqeiVu4HXl-19" target="x8o0eFIyDfpqeiVu4HXl-8" edge="1">
          <mxGeometry relative="1" as="geometry" />
        </mxCell>
        <mxCell id="x8o0eFIyDfpqeiVu4HXl-33" value="Updated Architecture - Key Features" style="rounded=1;whiteSpace=wrap;html=1;fillColor=#f8cecc;strokeColor=#b85450;fontStyle=1;arcSize=35;movable=1;resizable=1;rotatable=1;deletable=1;editable=1;locked=0;connectable=1;" parent="1" vertex="1">
          <mxGeometry x="30" y="840" width="1200" height="230" as="geometry" />
        </mxCell>
        <mxCell id="x8o0eFIyDfpqeiVu4HXl-34" value="🔵 API Layer (Controllers)" style="text;html=1;strokeColor=none;fillColor=none;align=left;verticalAlign=middle;whiteSpace=wrap;rounded=0;movable=1;resizable=1;rotatable=1;deletable=1;editable=1;locked=0;connectable=1;" parent="1" vertex="1">
          <mxGeometry x="50" y="870" width="200" height="20" as="geometry" />
        </mxCell>
        <mxCell id="x8o0eFIyDfpqeiVu4HXl-35" value="🟡 Application Layer (Use Cases)" style="text;html=1;strokeColor=none;fillColor=none;align=left;verticalAlign=middle;whiteSpace=wrap;rounded=0;movable=1;resizable=1;rotatable=1;deletable=1;editable=1;locked=0;connectable=1;" parent="1" vertex="1">
          <mxGeometry x="50" y="900" width="200" height="20" as="geometry" />
        </mxCell>
        <mxCell id="x8o0eFIyDfpqeiVu4HXl-36" value="🔴 Domain Layer (Core Business)" style="text;html=1;strokeColor=none;fillColor=none;align=left;verticalAlign=middle;whiteSpace=wrap;rounded=0;movable=1;resizable=1;rotatable=1;deletable=1;editable=1;locked=0;connectable=1;" parent="1" vertex="1">
          <mxGeometry x="50" y="930" width="200" height="20" as="geometry" />
        </mxCell>
        <mxCell id="x8o0eFIyDfpqeiVu4HXl-37" value="⚫ Infrastructure Layer (Adapters)" style="text;html=1;strokeColor=none;fillColor=none;align=left;verticalAlign=middle;whiteSpace=wrap;rounded=0;movable=1;resizable=1;rotatable=1;deletable=1;editable=1;locked=0;connectable=1;" parent="1" vertex="1">
          <mxGeometry x="50" y="960" width="200" height="20" as="geometry" />
        </mxCell>
        <mxCell id="x8o0eFIyDfpqeiVu4HXl-38" value="🟢 Microservices Communication" style="text;html=1;strokeColor=none;fillColor=none;align=left;verticalAlign=middle;whiteSpace=wrap;rounded=0;movable=1;resizable=1;rotatable=1;deletable=1;editable=1;locked=0;connectable=1;" parent="1" vertex="1">
          <mxGeometry x="50" y="990" width="200" height="20" as="geometry" />
        </mxCell>
        <mxCell id="x8o0eFIyDfpqeiVu4HXl-39" value="🟠 Event-Driven Architecture (RabbitMQ)" style="text;html=1;strokeColor=none;fillColor=none;align=left;verticalAlign=middle;whiteSpace=wrap;rounded=0;movable=1;resizable=1;rotatable=1;deletable=1;editable=1;locked=0;connectable=1;" parent="1" vertex="1">
          <mxGeometry x="290" y="870" width="250" height="20" as="geometry" />
        </mxCell>
        <mxCell id="x8o0eFIyDfpqeiVu4HXl-40" value="🔴 Redis Cache (Performance)" style="text;html=1;strokeColor=none;fillColor=none;align=left;verticalAlign=middle;whiteSpace=wrap;rounded=0;movable=1;resizable=1;rotatable=1;deletable=1;editable=1;locked=0;connectable=1;" parent="1" vertex="1">
          <mxGeometry x="290" y="900" width="250" height="20" as="geometry" />
        </mxCell>
        <mxCell id="x8o0eFIyDfpqeiVu4HXl-41" value="📋 3 Status: UnderReview → Approved/Rejected" style="text;html=1;strokeColor=none;fillColor=none;align=left;verticalAlign=middle;whiteSpace=wrap;rounded=0;movable=1;resizable=1;rotatable=1;deletable=1;editable=1;locked=0;connectable=1;" parent="1" vertex="1">
          <mxGeometry x="290" y="930" width="250" height="20" as="geometry" />
        </mxCell>
        <mxCell id="x8o0eFIyDfpqeiVu4HXl-42" value="📅 Contract Date (Auto-generated)" style="text;html=1;strokeColor=none;fillColor=none;align=left;verticalAlign=middle;whiteSpace=wrap;rounded=0;movable=1;resizable=1;rotatable=1;deletable=1;editable=1;locked=0;connectable=1;" parent="1" vertex="1">
          <mxGeometry x="290" y="960" width="250" height="20" as="geometry" />
        </mxCell>
        <mxCell id="x8o0eFIyDfpqeiVu4HXl-43" value="🟣 Event Consumers (Async Processing)" style="text;html=1;strokeColor=none;fillColor=none;align=left;verticalAlign=middle;whiteSpace=wrap;rounded=0;movable=1;resizable=1;rotatable=1;deletable=1;editable=1;locked=0;connectable=1;" parent="1" vertex="1">
          <mxGeometry x="290" y="990" width="250" height="20" as="geometry" />
        </mxCell>
        <mxCell id="x8o0eFIyDfpqeiVu4HXl-44" value="🔧 Technical Stack:" style="text;html=1;strokeColor=none;fillColor=none;align=left;verticalAlign=middle;whiteSpace=wrap;rounded=0;fontStyle=1;movable=1;resizable=1;rotatable=1;deletable=1;editable=1;locked=0;connectable=1;" parent="1" vertex="1">
          <mxGeometry x="590" y="870" width="200" height="20" as="geometry" />
        </mxCell>
        <mxCell id="x8o0eFIyDfpqeiVu4HXl-45" value="• .NET 8 + Entity Framework" style="text;html=1;strokeColor=none;fillColor=none;align=left;verticalAlign=middle;whiteSpace=wrap;rounded=0;movable=1;resizable=1;rotatable=1;deletable=1;editable=1;locked=0;connectable=1;" parent="1" vertex="1">
          <mxGeometry x="590" y="900" width="200" height="20" as="geometry" />
        </mxCell>
        <mxCell id="x8o0eFIyDfpqeiVu4HXl-46" value="• MassTransit + RabbitMQ" style="text;html=1;strokeColor=none;fillColor=none;align=left;verticalAlign=middle;whiteSpace=wrap;rounded=0;movable=1;resizable=1;rotatable=1;deletable=1;editable=1;locked=0;connectable=1;" parent="1" vertex="1">
          <mxGeometry x="590" y="930" width="200" height="20" as="geometry" />
        </mxCell>
        <mxCell id="x8o0eFIyDfpqeiVu4HXl-47" value="• Docker Compose" style="text;html=1;strokeColor=none;fillColor=none;align=left;verticalAlign=middle;whiteSpace=wrap;rounded=0;movable=1;resizable=1;rotatable=1;deletable=1;editable=1;locked=0;connectable=1;" parent="1" vertex="1">
          <mxGeometry x="590" y="960" width="200" height="20" as="geometry" />
        </mxCell>
        <mxCell id="x8o0eFIyDfpqeiVu4HXl-48" value="• Ports: 7001, 7002, 6379, 5672" style="text;html=1;strokeColor=none;fillColor=none;align=left;verticalAlign=middle;whiteSpace=wrap;rounded=0;movable=1;resizable=1;rotatable=1;deletable=1;editable=1;locked=0;connectable=1;" parent="1" vertex="1">
          <mxGeometry x="590" y="990" width="200" height="20" as="geometry" />
        </mxCell>
        <mxCell id="x8o0eFIyDfpqeiVu4HXl-49" value="📨 Event Flow:" style="text;html=1;strokeColor=none;fillColor=none;align=left;verticalAlign=middle;whiteSpace=wrap;rounded=0;fontStyle=1;movable=1;resizable=1;rotatable=1;deletable=1;editable=1;locked=0;connectable=1;" parent="1" vertex="1">
          <mxGeometry x="840" y="870" width="200" height="20" as="geometry" />
        </mxCell>
        <mxCell id="x8o0eFIyDfpqeiVu4HXl-50" value="• ProposalCreated → RabbitMQ" style="text;html=1;strokeColor=none;fillColor=none;align=left;verticalAlign=middle;whiteSpace=wrap;rounded=0;movable=1;resizable=1;rotatable=1;deletable=1;editable=1;locked=0;connectable=1;" parent="1" vertex="1">
          <mxGeometry x="840" y="900" width="200" height="20" as="geometry" />
        </mxCell>
        <mxCell id="x8o0eFIyDfpqeiVu4HXl-51" value="• ProposalStatusUpdated → Consumer" style="text;html=1;strokeColor=none;fillColor=none;align=left;verticalAlign=middle;whiteSpace=wrap;rounded=0;movable=1;resizable=1;rotatable=1;deletable=1;editable=1;locked=0;connectable=1;" parent="1" vertex="1">
          <mxGeometry x="840" y="930" width="200" height="20" as="geometry" />
        </mxCell>
        <mxCell id="x8o0eFIyDfpqeiVu4HXl-52" value="• ContractCreated → RabbitMQ" style="text;html=1;strokeColor=none;fillColor=none;align=left;verticalAlign=middle;whiteSpace=wrap;rounded=0;movable=1;resizable=1;rotatable=1;deletable=1;editable=1;locked=0;connectable=1;" parent="1" vertex="1">
          <mxGeometry x="840" y="960" width="200" height="20" as="geometry" />
        </mxCell>
        <mxCell id="x8o0eFIyDfpqeiVu4HXl-53" value="• Async Communication" style="text;html=1;strokeColor=none;fillColor=none;align=left;verticalAlign=middle;whiteSpace=wrap;rounded=0;movable=1;resizable=1;rotatable=1;deletable=1;editable=1;locked=0;connectable=1;" parent="1" vertex="1">
          <mxGeometry x="840" y="990" width="200" height="20" as="geometry" />
        </mxCell>
        <mxCell id="x8o0eFIyDfpqeiVu4HXl-54" value="" style="edgeStyle=orthogonalEdgeStyle;rounded=0;orthogonalLoop=1;jettySize=auto;html=1;curved=1;strokeColor=#ff6600;" parent="1" source="x8o0eFIyDfpqeiVu4HXl-8" target="x8o0eFIyDfpqeiVu4HXl-20" edge="1">
          <mxGeometry relative="1" as="geometry">
            <mxPoint x="600" y="400" as="sourcePoint" />
            <mxPoint x="510" y="520" as="targetPoint" />
          </mxGeometry>
        </mxCell>
        <mxCell id="x8o0eFIyDfpqeiVu4HXl-20" value="Event Publishers&#xa;• ProposalCreated&#xa;• ProposalStatusUpdated&#xa;• ContractCreated" style="rounded=1;whiteSpace=wrap;html=1;fillColor=#99ccff;strokeColor=#3366cc;" parent="1" vertex="1">
          <mxGeometry x="430" y="470" width="170" height="80" as="geometry" />
        </mxCell>
      </root>
    </mxGraphModel>
  </diagram>
</mxfile>
